<?xml version="1.0" encoding="utf-8"?>
<!-- Generator: Adobe Illustrator 18.0.0, SVG Export Plug-In . SVG Version: 6.00 Build 0)  -->
<!DOCTYPE svg PUBLIC "-//W3C//DTD SVG 1.1//EN" "http://www.w3.org/Graphics/SVG/1.1/DTD/svg11.dtd">
<svg version="1.1" id="Capa_1" xmlns="http://www.w3.org/2000/svg" xmlns:xlink="http://www.w3.org/1999/xlink" x="0px" y="0px"
	 viewBox="0 0 50 50" enable-background="new 0 0 50 50" xml:space="preserve">
<g id="Greca">
	<path id="Greca_1_" fill="#FFFFFF" d="M19.5,8.4c10.1,0,20.2,0,30.4,0c0,11,0,22,0,33v0.1h-0.1c-13.7,0-27.4,0-41.1,0H8.6l0,0l0,0
		c0,0,0,0,0-0.1c0-2.3,0-4.6,0-6.9c0-0.4,0-0.8,0-1.2v-0.1c-0.1,0-0.1,0-0.1,0c-2.7,0-5.3,0-8,0H0.4l0,0c0-5.5,0-11,0-16.5h0.1
		c2.7,0,5.4,0,8.1,0h0.1c0,0.4,0,0.7,0,1s0,0.7,0,1s0,0.7,0,1s0,0.7,0,1s0,0.7,0,1s0,0.7,0,1s0,0.7,0,1s0,0.7,0,1l0,0l0,0l0,0
		c2.7,0,5.4,0,8.1,0l0,0l0,0l0,0l0,0l0,0l0,0c0,2.7,0,5.5,0,8.2l0,0l0,0l0,0c0.4,0,24.7,0,24.8,0c0-5.5,0-11,0-16.5
		c-4.6,0-9.2,0-13.8,0c0,0.2,0,5.4,0,5.5c0.9,0,1.8,0,2.7,0c0-0.2,0-0.5,0-0.7s0-0.5,0-0.7s0-0.5,0-0.7s0-0.5,0-0.7
		c2.8,0,5.5,0,8.3,0c0,0.1,0,11,0,11c-6.4,0-12.9,0-19.3,0V30c0-2.5,0-5.1,0-7.6c0-4.7,0-9.5,0-14.2C19.5,8.5,19.5,8.5,19.5,8.4z"/>
</g>
</svg>
